<svg version="1.1" id="Layer_1" xmlns="http://www.w3.org/2000/svg" xmlns:xlink="http://www.w3.org/1999/xlink" x="0px" y="0px"
	 width="100%" viewBox="0 0 1945 1018" enable-background="new 0 0 1945 1018" xml:space="preserve">

<path fill="#FFFFFF" opacity="1.000000" stroke="none" d="
M1081.218872,542.343933 
	C1081.146118,549.072021 1081.001831,555.800537 1081.048706,562.527832 
	C1081.061035,564.298462 1081.664307,566.064941 1082.924683,567.973511 
	C1093.179565,567.973511 1103.434448,567.973511 1113.833008,567.973511 
	C1113.833008,558.915161 1113.833008,550.456116 1113.561646,541.173401 
	C1103.842651,541.116028 1094.123535,541.034241 1084.404541,541.044922 
	C1083.574829,541.045837 1082.745850,541.661926 1081.992554,541.992493 
	C1081.992554,541.992493 1081.992188,541.916504 1081.218872,542.343933 
M480.718567,541.990356 
	C469.964844,541.985535 459.210907,541.943665 448.457733,542.017944 
	C446.937195,542.028442 445.420593,542.604614 443.295532,543.196899 
	C435.277374,551.216003 427.259247,559.235107 418.497101,567.998291 
	C443.586029,567.998291 467.381104,568.009644 491.176086,567.961060 
	C492.243073,567.958923 493.637054,567.746094 494.325500,567.068970 
	C502.712097,558.819824 510.994995,550.465210 520.523987,540.916138 
	C499.338013,519.739807 478.505554,498.916779 457.578552,477.999268 
	C466.812714,477.999268 476.259857,477.801056 485.692047,478.089661 
	C489.897003,478.218292 493.091187,477.255249 495.983368,474.058655 
	C502.443970,466.917908 509.198792,460.043365 515.610901,452.212097 
	C491.599854,452.145142 467.588837,452.072784 443.577759,452.046509 
	C443.047791,452.045929 442.517242,452.571533 441.368683,453.135834 
	C433.503235,460.995026 425.637817,468.854248 417.591583,476.894135 
	C418.996704,478.384247 420.085205,479.598694 421.236389,480.750488 
	C440.429321,499.953979 459.638397,519.141357 478.807098,538.369019 
	C479.884064,539.449280 480.643097,540.846497 480.718567,541.990356 
M1251.005737,483.042847 
	C1250.995728,482.376770 1251.142090,481.662262 1250.952881,481.051697 
	C1245.639526,463.899231 1231.868042,453.023865 1213.598755,453.006989 
	C1185.937256,452.981415 1158.275879,453.000336 1130.614380,453.000336 
	C1128.847656,453.000336 1127.080933,453.000336 1125.368896,453.000336 
	C1125.368896,462.353912 1125.368896,471.075958 1125.368896,479.999695 
	C1127.557617,479.999695 1129.378540,479.999664 1131.199585,479.999664 
	C1158.361206,479.999664 1185.522705,479.986176 1212.684326,480.007965 
	C1220.881348,480.014557 1223.995117,483.115753 1223.998657,491.131561 
	C1224.004395,504.295654 1223.581421,517.478394 1224.167358,530.616394 
	C1224.485840,537.757690 1219.888306,541.041504 1213.643311,541.010681 
	C1194.647217,540.916931 1175.650635,540.982056 1156.654175,540.965210 
	C1155.210815,540.963928 1153.767700,540.805054 1151.832764,540.690247 
	C1151.832764,525.590759 1151.832764,510.793945 1151.562012,495.173126 
	C1145.753418,495.115570 1139.943115,494.947693 1134.137085,495.046204 
	C1131.148193,495.096893 1128.167358,495.622009 1125.029297,496.867493 
	C1125.029297,520.466553 1125.029297,544.065552 1125.029297,567.999695 
	C1127.406982,567.999695 1129.213989,567.999695 1131.020996,567.999695 
	C1158.518555,567.999695 1186.018066,567.820557 1213.512695,568.109924 
	C1221.660522,568.195740 1229.078247,566.915527 1235.702148,562.060364 
	C1244.225952,555.812744 1250.392090,548.109192 1251.853516,536.608215 
	C1251.914307,519.663635 1251.986450,502.719025 1251.991699,485.774445 
	C1251.991943,485.127808 1251.345581,484.480988 1251.005737,483.042847 
M1385.826538,479.562714 
	C1385.884521,472.196594 1385.996704,464.830139 1385.953613,457.464600 
	C1385.945190,456.030060 1385.332520,454.599091 1384.070557,453.026428 
	C1343.712646,453.073273 1303.354736,453.120117 1262.173340,453.438507 
	C1262.116943,490.941010 1262.055664,528.443542 1262.045166,565.946045 
	C1262.045044,566.576050 1262.659180,567.206238 1263.916748,567.974060 
	C1304.157715,567.974060 1344.398560,567.974060 1384.844116,567.974060 
	C1384.844116,558.957031 1384.844116,550.498413 1384.575073,541.210022 
	C1353.175781,541.161499 1321.776611,541.112976 1290.065674,540.166504 
	C1290.065674,534.898865 1290.065674,529.631226 1290.065674,523.840088 
	C1319.874390,523.840088 1349.180176,523.840088 1379.285522,523.840088 
	C1370.878174,515.415710 1363.249756,507.549347 1355.317505,500.002502 
	C1353.636230,498.402924 1350.855225,497.159363 1348.562744,497.128937 
	C1330.924316,496.894623 1313.281372,497.000031 1295.639893,497.000000 
	C1293.872192,497.000000 1292.104370,497.000000 1290.350098,497.000000 
	C1290.350098,491.006989 1290.350098,485.622314 1290.350098,480.000000 
	C1292.676514,480.000000 1294.657837,480.003204 1296.639160,479.999512 
	C1326.093628,479.944641 1355.547974,479.888885 1385.826538,479.562714 
M968.412659,505.946533 
	C980.184387,519.087646 991.972839,532.213745 1003.719360,545.377441 
	C1008.154358,550.347534 1012.872681,555.127563 1016.775879,560.493225 
	C1021.427490,566.887573 1027.171387,569.418213 1034.858765,568.037170 
	C1036.311768,567.776184 1037.851807,567.999817 1039.351685,567.999817 
	C1046.397339,567.999817 1053.442993,567.999756 1061.287231,567.999756 
	C1050.103027,555.411499 1039.631592,543.625610 1028.436401,531.024963 
	C1032.803345,531.024963 1035.637695,531.115234 1038.464600,531.008789 
	C1048.760986,530.621277 1057.143188,526.453735 1062.997437,517.883545 
	C1073.360107,502.713348 1073.323364,486.567841 1065.666626,470.622772 
	C1060.187134,459.211761 1050.514893,452.963501 1037.338013,452.982788 
	C1002.174255,453.034302 967.010315,453.000336 931.846497,453.000336 
	C930.057739,453.000336 928.268982,453.000336 926.285461,453.000336 
	C926.285461,491.516113 926.285461,529.568115 926.285461,567.658569 
	C935.296326,567.658569 944.017822,567.658569 952.999756,567.658569 
	C952.999756,565.507935 952.999817,563.692627 952.999817,561.877319 
	C952.999817,536.379395 953.075256,510.880981 952.922546,485.383942 
	C952.898254,481.328125 953.939270,479.876099 958.237000,479.907806 
	C983.566956,480.094757 1008.899048,480.039246 1034.230103,479.956879 
	C1037.972778,479.944702 1040.630493,481.178650 1041.877686,484.769592 
	C1043.908325,490.615784 1043.782959,496.367645 1040.577637,501.795441 
	C1040.162842,502.497772 1038.935791,502.720398 1037.140991,503.028534 
	C1015.184998,503.019928 993.229004,503.009277 971.273010,503.008270 
	C970.112183,503.008240 968.951416,503.089935 967.790588,503.133545 
	C967.893433,503.891296 967.996277,504.649017 968.412659,505.946533 
M706.525757,514.036926 
	C713.322388,521.850098 720.076416,529.700928 726.927673,537.465942 
	C733.906006,545.375183 740.912781,553.261841 748.050415,561.026611 
	C750.379700,563.560608 752.983826,567.386658 755.765015,567.672180 
	C764.286560,568.547119 772.955200,567.990356 781.683289,567.990356 
	C781.683289,529.493530 781.683289,491.499329 781.683289,452.568329 
	C773.232605,461.087952 765.300354,468.881042 757.667053,476.956787 
	C756.181702,478.528320 755.153137,481.187134 755.116089,483.364899 
	C754.886658,496.854614 755.010010,510.350220 754.986206,523.843811 
	C754.983826,525.198547 754.781128,526.552979 754.551819,529.382446 
	C752.266907,526.450684 751.014526,524.607239 749.529297,522.975830 
	C738.985291,511.394653 728.358398,499.888794 717.835938,488.288239 
	C714.094116,484.163025 710.627502,479.789337 706.931274,475.621277 
	C700.486084,468.353271 693.976013,461.142365 687.436218,453.959381 
	C686.953491,453.429230 686.014526,453.054535 685.284424,453.049286 
	C676.671570,452.987183 668.058044,453.009369 659.287903,453.009369 
	C659.287903,491.541382 659.287903,529.582825 659.287903,567.659546 
	C668.298096,567.659546 677.017273,567.659546 686.138794,567.659546 
	C686.138794,542.447937 686.138794,517.573120 686.138794,491.779541 
	C693.190552,499.502441 699.598877,506.520569 706.525757,514.036926 
M548.306580,567.999451 
	C550.972778,568.376648 552.147522,567.528748 552.064819,564.536011 
	C551.862488,557.213196 551.999695,549.880981 551.999939,542.552551 
	C552.000183,536.457275 552.000000,530.361938 552.000000,524.000000 
	C573.458557,524.000000 594.257996,524.162537 615.051453,523.882629 
	C620.084961,523.814941 621.198242,525.551636 621.094666,530.193665 
	C620.817139,542.632996 621.000000,555.082581 621.000000,567.713257 
	C630.191162,567.713257 638.908020,567.713257 647.683716,567.713257 
	C647.683716,529.389343 647.683716,491.352997 647.683716,453.366577 
	C638.644043,453.366577 629.925049,453.366577 620.805908,453.366577 
	C620.805908,475.603821 620.805908,497.477203 620.805908,519.350586 
	C620.429993,519.589233 620.054077,519.827881 619.678162,520.066467 
	C617.633789,517.710449 615.702393,515.243652 613.522522,513.020386 
	C608.278809,507.672363 603.768250,500.399780 597.366516,497.732117 
	C590.968262,495.065857 582.631042,497.031921 575.143677,497.005829 
	C567.542725,496.979370 559.941589,497.000000 551.832886,497.000000 
	C551.832886,482.023163 551.832886,467.635254 551.832886,453.394653 
	C542.586304,453.394653 533.865967,453.394653 525.247498,453.394653 
	C525.247498,491.708466 525.247498,529.627136 525.247498,567.999939 
	C532.772705,567.999939 540.057922,567.999939 548.306580,567.999451 
M858.516418,473.970215 
	C853.896240,478.926880 849.417114,484.025543 844.612732,488.796722 
	C840.542419,492.838837 837.416443,497.863647 829.938416,497.193939 
	C820.059204,496.309235 820.046021,496.976044 819.966492,486.611542 
	C819.946594,484.022034 820.519348,480.503601 819.117126,479.001343 
	C810.904541,470.202759 802.186462,461.875885 793.367798,453.120667 
	C793.367798,491.726013 793.367798,529.755920 793.367798,567.752991 
	C802.339966,567.752991 810.942688,567.752991 819.819153,567.752991 
	C820.574158,548.197693 819.047180,528.791138 821.007874,508.315247 
	C840.451111,527.826416 858.898193,546.360352 877.392944,564.846558 
	C878.624146,566.077209 880.199036,567.816772 881.644165,567.846252 
	C893.556641,568.089172 905.476135,567.983521 916.597534,567.983521 
	C898.398193,548.886902 880.054810,529.639221 861.450989,510.118195 
	C878.947815,491.768311 897.045898,472.787872 915.911499,453.002472 
	C903.274780,453.002472 891.966614,452.930664 880.661804,453.093262 
	C879.246277,453.113617 877.527649,454.057129 876.495422,455.108795 
	C870.578247,461.137482 864.825989,467.328003 858.516418,473.970215 
M1520.432251,453.001831 
	C1514.435303,453.001953 1508.429443,452.823364 1502.447876,453.126740 
	C1500.934692,453.203491 1498.818115,454.463226 1498.132202,455.780060 
	C1489.288818,472.761719 1480.640137,489.845001 1471.973511,506.918488 
	C1468.055420,514.637390 1464.206909,522.391663 1459.963135,530.855225 
	C1452.023926,515.370422 1444.390747,500.873199 1437.144653,486.184906 
	C1433.515869,478.829407 1429.010376,473.191772 1421.020020,469.745514 
	C1411.382446,465.588806 1402.469116,459.758636 1393.205933,454.719696 
	C1392.348267,454.253174 1391.228516,454.268555 1389.518921,453.911621 
	C1390.243774,455.396698 1390.575562,456.110413 1390.935669,456.809723 
	C1400.963135,476.292175 1411.019165,495.760101 1421.015869,515.258301 
	C1429.386963,531.585388 1437.750000,547.917236 1445.962524,564.324036 
	C1447.328735,567.053406 1448.901978,568.252991 1452.019165,568.066467 
	C1456.500732,567.798279 1461.063110,567.567749 1465.494385,568.110229 
	C1470.694946,568.747009 1473.010742,566.167725 1475.091309,562.017639 
	C1489.135498,534.002563 1503.306274,506.050781 1517.485962,478.103882 
	C1521.631592,469.933350 1525.939575,461.845245 1530.546875,453.001831 
	C1526.948975,453.001831 1524.177734,453.001831 1520.432251,453.001831 
z"/>
<path fill="#FF5601" opacity="1.000000" stroke="none" 
	d="
M1038.084961,503.165222 
	C1038.935791,502.720398 1040.162842,502.497772 1040.577637,501.795441 
	C1043.782959,496.367645 1043.908325,490.615784 1041.877686,484.769592 
	C1040.630493,481.178650 1037.972778,479.944702 1034.230103,479.956879 
	C1008.899048,480.039246 983.566956,480.094757 958.237000,479.907806 
	C953.939270,479.876099 952.898254,481.328125 952.922546,485.383942 
	C953.075256,510.880981 952.999817,536.379395 952.999817,561.877319 
	C952.999817,563.692627 952.999756,565.507935 952.999756,567.658569 
	C944.017822,567.658569 935.296326,567.658569 926.285461,567.658569 
	C926.285461,529.568115 926.285461,491.516113 926.285461,453.000336 
	C928.268982,453.000336 930.057739,453.000336 931.846497,453.000336 
	C967.010315,453.000336 1002.174255,453.034302 1037.338013,452.982788 
	C1050.514893,452.963501 1060.187134,459.211761 1065.666626,470.622772 
	C1073.323364,486.567841 1073.360107,502.713348 1062.997437,517.883545 
	C1057.143188,526.453735 1048.760986,530.621277 1038.464600,531.008789 
	C1035.637695,531.115234 1032.803345,531.024963 1028.436401,531.024963 
	C1039.631592,543.625610 1050.103027,555.411499 1061.287231,567.999756 
	C1053.442993,567.999756 1046.397339,567.999817 1039.351685,567.999817 
	C1037.851807,567.999817 1036.311768,567.776184 1034.858765,568.037170 
	C1027.171387,569.418213 1021.427490,566.887573 1016.775879,560.493225 
	C1012.872681,555.127563 1008.154358,550.347534 1003.719360,545.377441 
	C991.972839,532.213745 980.184387,519.087646 968.405273,505.249664 
	C970.364075,504.363129 972.329956,504.013367 974.296631,504.008606 
	C993.794312,503.961182 1013.292297,503.991364 1032.789917,503.929749 
	C1034.555786,503.924164 1036.319946,503.431580 1038.084961,503.165222 
z"/>
<path fill="#FF5500" opacity="1.000000" stroke="none" 
	d="
M1384.844116,542.039795 
	C1384.844116,550.498413 1384.844116,558.957031 1384.844116,567.974060 
	C1344.398560,567.974060 1304.157715,567.974060 1263.454956,567.446899 
	C1262.994385,529.002197 1262.995605,491.084564 1262.996826,453.166962 
	C1303.354736,453.120117 1343.712646,453.073273 1384.534668,453.554443 
	C1384.999878,462.666077 1385.001099,471.249725 1385.002441,479.833344 
	C1355.547974,479.888885 1326.093628,479.944641 1296.639160,479.999512 
	C1294.657837,480.003204 1292.676514,480.000000 1290.350098,480.000000 
	C1290.350098,485.622314 1290.350098,491.006989 1290.350098,497.000000 
	C1292.104370,497.000000 1293.872192,497.000000 1295.639893,497.000000 
	C1313.281372,497.000031 1330.924316,496.894623 1348.562744,497.128937 
	C1350.855225,497.159363 1353.636230,498.402924 1355.317505,500.002502 
	C1363.249756,507.549347 1370.878174,515.415710 1379.285522,523.840088 
	C1349.180176,523.840088 1319.874390,523.840088 1290.065674,523.840088 
	C1290.065674,529.631226 1290.065674,534.898865 1290.518677,540.817627 
	C1293.111572,541.653748 1295.251099,541.996643 1297.391235,541.999634 
	C1326.542236,542.040527 1355.693115,542.034424 1384.844116,542.039795 
z"/>
<path fill="#FF5601" opacity="1.000000" stroke="none" 
	d="
M1251.097290,537.047119 
	C1250.392090,548.109192 1244.225952,555.812744 1235.702148,562.060364 
	C1229.078247,566.915527 1221.660522,568.195740 1213.512695,568.109924 
	C1186.018066,567.820557 1158.518555,567.999695 1131.020996,567.999695 
	C1129.213989,567.999695 1127.406982,567.999695 1125.029297,567.999695 
	C1125.029297,544.065552 1125.029297,520.466553 1125.563110,496.411499 
	C1134.675537,495.969391 1143.254150,495.983276 1151.832764,495.997162 
	C1151.832764,510.793945 1151.832764,525.590759 1151.832764,540.690247 
	C1153.767700,540.805054 1155.210815,540.963928 1156.654175,540.965210 
	C1175.650635,540.982056 1194.647217,540.916931 1213.643311,541.010681 
	C1219.888306,541.041504 1224.485840,537.757690 1224.167358,530.616394 
	C1223.581421,517.478394 1224.004395,504.295654 1223.998657,491.131561 
	C1223.995117,483.115753 1220.881348,480.014557 1212.684326,480.007965 
	C1185.522705,479.986176 1158.361206,479.999664 1131.199585,479.999664 
	C1129.378540,479.999664 1127.557617,479.999695 1125.368896,479.999695 
	C1125.368896,471.075958 1125.368896,462.353912 1125.368896,453.000336 
	C1127.080933,453.000336 1128.847656,453.000336 1130.614380,453.000336 
	C1158.275879,453.000336 1185.937256,452.981415 1213.598755,453.006989 
	C1231.868042,453.023865 1245.639526,463.899231 1250.952881,481.051697 
	C1251.142090,481.662262 1250.995728,482.376770 1250.929321,483.912964 
	C1250.934326,502.204437 1251.015869,519.625793 1251.097290,537.047119 
z"/>
<path fill="#FF5602" opacity="1.000000" stroke="none" 
	d="
M706.266479,513.787842 
	C699.598877,506.520569 693.190552,499.502441 686.138794,491.779541 
	C686.138794,517.573120 686.138794,542.447937 686.138794,567.659546 
	C677.017273,567.659546 668.298096,567.659546 659.287903,567.659546 
	C659.287903,529.582825 659.287903,491.541382 659.287903,453.009369 
	C668.058044,453.009369 676.671570,452.987183 685.284424,453.049286 
	C686.014526,453.054535 686.953491,453.429230 687.436218,453.959381 
	C693.976013,461.142365 700.486084,468.353271 706.931274,475.621277 
	C710.627502,479.789337 714.094116,484.163025 717.835938,488.288239 
	C728.358398,499.888794 738.985291,511.394653 749.529297,522.975830 
	C751.014526,524.607239 752.266907,526.450684 754.551819,529.382446 
	C754.781128,526.552979 754.983826,525.198547 754.986206,523.843811 
	C755.010010,510.350220 754.886658,496.854614 755.116089,483.364899 
	C755.153137,481.187134 756.181702,478.528320 757.667053,476.956787 
	C765.300354,468.881042 773.232605,461.087952 781.683289,452.568329 
	C781.683289,491.499329 781.683289,529.493530 781.683289,567.990356 
	C772.955200,567.990356 764.286560,568.547119 755.765015,567.672180 
	C752.983826,567.386658 750.379700,563.560608 748.050415,561.026611 
	C740.912781,553.261841 733.906006,545.375183 726.927673,537.465942 
	C720.076416,529.700928 713.322388,521.850098 706.266479,513.787842 
z"/>
<path fill="#FF5500" opacity="1.000000" stroke="none" 
	d="
M547.824829,567.999695 
	C540.057922,567.999939 532.772705,567.999939 525.247498,567.999939 
	C525.247498,529.627136 525.247498,491.708466 525.247498,453.394653 
	C533.865967,453.394653 542.586304,453.394653 551.832886,453.394653 
	C551.832886,467.635254 551.832886,482.023163 551.832886,497.000000 
	C559.941589,497.000000 567.542725,496.979370 575.143677,497.005829 
	C582.631042,497.031921 590.968262,495.065857 597.366516,497.732117 
	C603.768250,500.399780 608.278809,507.672363 613.522522,513.020386 
	C615.702393,515.243652 617.633789,517.710449 619.678162,520.066467 
	C620.054077,519.827881 620.429993,519.589233 620.805908,519.350586 
	C620.805908,497.477203 620.805908,475.603821 620.805908,453.366577 
	C629.925049,453.366577 638.644043,453.366577 647.683716,453.366577 
	C647.683716,491.352997 647.683716,529.389343 647.683716,567.713257 
	C638.908020,567.713257 630.191162,567.713257 621.000000,567.713257 
	C621.000000,555.082581 620.817139,542.632996 621.094666,530.193665 
	C621.198242,525.551636 620.084961,523.814941 615.051453,523.882629 
	C594.257996,524.162537 573.458557,524.000000 552.000000,524.000000 
	C552.000000,530.361938 552.000183,536.457275 551.999939,542.552551 
	C551.999695,549.880981 551.862488,557.213196 552.064819,564.536011 
	C552.147522,567.528748 550.972778,568.376648 547.824829,567.999695 
z"/>
<path fill="#FF5602" opacity="1.000000" stroke="none" 
	d="
M858.767090,473.716919 
	C864.825989,467.328003 870.578247,461.137482 876.495422,455.108795 
	C877.527649,454.057129 879.246277,453.113617 880.661804,453.093262 
	C891.966614,452.930664 903.274780,453.002472 915.911499,453.002472 
	C897.045898,472.787872 878.947815,491.768311 861.450989,510.118195 
	C880.054810,529.639221 898.398193,548.886902 916.597534,567.983521 
	C905.476135,567.983521 893.556641,568.089172 881.644165,567.846252 
	C880.199036,567.816772 878.624146,566.077209 877.392944,564.846558 
	C858.898193,546.360352 840.451111,527.826416 821.007874,508.315247 
	C819.047180,528.791138 820.574158,548.197693 819.819153,567.752991 
	C810.942688,567.752991 802.339966,567.752991 793.367798,567.752991 
	C793.367798,529.755920 793.367798,491.726013 793.367798,453.120667 
	C802.186462,461.875885 810.904541,470.202759 819.117126,479.001343 
	C820.519348,480.503601 819.946594,484.022034 819.966492,486.611542 
	C820.046021,496.976044 820.059204,496.309235 829.938416,497.193939 
	C837.416443,497.863647 840.542419,492.838837 844.612732,488.796722 
	C849.417114,484.025543 853.896240,478.926880 858.767090,473.716919 
z"/>
<path fill="#FF5602" opacity="1.000000" stroke="none" 
	d="
M515.833740,453.060364 
	C509.198792,460.043365 502.443970,466.917908 495.983368,474.058655 
	C493.091187,477.255249 489.897003,478.218292 485.692047,478.089661 
	C476.259857,477.801056 466.812714,477.999268 457.578552,477.999268 
	C478.505554,498.916779 499.338013,519.739807 520.523987,540.916138 
	C510.994995,550.465210 502.712097,558.819824 494.325500,567.068970 
	C493.637054,567.746094 492.243073,567.958923 491.176086,567.961060 
	C467.381104,568.009644 443.586029,567.998291 418.497101,567.998291 
	C427.259247,559.235107 435.277374,551.216003 444.071747,543.080261 
	C454.320374,542.980286 463.793488,543.065674 473.264771,542.970825 
	C476.029175,542.943115 478.788483,542.401917 481.550110,542.096191 
	C480.643097,540.846497 479.884064,539.449280 478.807098,538.369019 
	C459.638397,519.141357 440.429321,499.953979 421.236389,480.750488 
	C420.085205,479.598694 418.996704,478.384247 417.591583,476.894135 
	C425.637817,468.854248 433.503235,460.995026 442.144531,453.042114 
	C467.224823,452.985748 491.529266,453.023041 515.833740,453.060364 
z"/>
<path fill="#FF5804" opacity="1.000000" stroke="none" 
	d="
M1520.919434,453.001831 
	C1524.177734,453.001831 1526.948975,453.001831 1530.546875,453.001831 
	C1525.939575,461.845245 1521.631592,469.933350 1517.485962,478.103882 
	C1503.306274,506.050781 1489.135498,534.002563 1475.091309,562.017639 
	C1473.010742,566.167725 1470.694946,568.747009 1465.494385,568.110229 
	C1461.063110,567.567749 1456.500732,567.798279 1452.019165,568.066467 
	C1448.901978,568.252991 1447.328735,567.053406 1445.962524,564.324036 
	C1437.750000,547.917236 1429.386963,531.585388 1421.015869,515.258301 
	C1411.019165,495.760101 1400.963135,476.292175 1390.935669,456.809723 
	C1390.575562,456.110413 1390.243774,455.396698 1389.518921,453.911621 
	C1391.228516,454.268555 1392.348267,454.253174 1393.205933,454.719696 
	C1402.469116,459.758636 1411.382446,465.588806 1421.020020,469.745514 
	C1429.010376,473.191772 1433.515869,478.829407 1437.144653,486.184906 
	C1444.390747,500.873199 1452.023926,515.370422 1459.963135,530.855225 
	C1464.206909,522.391663 1468.055420,514.637390 1471.973511,506.918488 
	C1480.640137,489.845001 1489.288818,472.761719 1498.132202,455.780060 
	C1498.818115,454.463226 1500.934692,453.203491 1502.447876,453.126740 
	C1508.429443,452.823364 1514.435303,453.001953 1520.919434,453.001831 
z"/>
<path fill="#FF5500" opacity="1.000000" stroke="none" 
	d="
M1113.833008,541.997131 
	C1113.833008,550.456116 1113.833008,558.915161 1113.833008,567.973511 
	C1103.434448,567.973511 1093.179565,567.973511 1082.460571,567.445435 
	C1081.994995,558.583740 1081.993530,550.250122 1081.992188,541.916504 
	C1081.992188,541.916504 1081.992554,541.992493 1082.428467,541.995483 
	C1093.187256,541.998047 1103.510132,541.997559 1113.833008,541.997131 
z"/>
<path fill="#FFAA7F" opacity="1.000000" stroke="none" 
	d="
M1262.585083,453.302734 
	C1262.995605,491.084564 1262.994385,529.002197 1262.989990,567.378052 
	C1262.659180,567.206238 1262.045044,566.576050 1262.045166,565.946045 
	C1262.055664,528.443542 1262.116943,490.941010 1262.585083,453.302734 
z"/>
<path fill="#FF5804" opacity="1.000000" stroke="none" 
	d="
M1384.709595,541.624878 
	C1355.693115,542.034424 1326.542236,542.040527 1297.391235,541.999634 
	C1295.251099,541.996643 1293.111572,541.653748 1290.674561,541.266602 
	C1321.776611,541.112976 1353.175781,541.161499 1384.709595,541.624878 
z"/>
<path fill="#FFAA7F" opacity="1.000000" stroke="none" 
	d="
M515.722290,452.636230 
	C491.529266,453.023041 467.224823,452.985748 442.453674,452.900055 
	C442.517242,452.571533 443.047791,452.045929 443.577759,452.046509 
	C467.588837,452.072784 491.599854,452.145142 515.722290,452.636230 
z"/>
<path fill="#FFAA7F" opacity="1.000000" stroke="none" 
	d="
M1037.613037,503.096863 
	C1036.319946,503.431580 1034.555786,503.924164 1032.789917,503.929749 
	C1013.292297,503.991364 993.794312,503.961182 974.296631,504.008606 
	C972.329956,504.013367 970.364075,504.363129 968.248413,504.979797 
	C967.996277,504.649017 967.893433,503.891296 967.790588,503.133545 
	C968.951416,503.089935 970.112183,503.008240 971.273010,503.008270 
	C993.229004,503.009277 1015.184998,503.019928 1037.613037,503.096863 
z"/>
<path fill="#FFAA7F" opacity="1.000000" stroke="none" 
	d="
M1251.475342,536.827637 
	C1251.015869,519.625793 1250.934326,502.204437 1250.926758,484.308655 
	C1251.345581,484.480988 1251.991943,485.127808 1251.991699,485.774445 
	C1251.986450,502.719025 1251.914307,519.663635 1251.475342,536.827637 
z"/>
<path fill="#FF5804" opacity="1.000000" stroke="none" 
	d="
M481.134338,542.043274 
	C478.788483,542.401917 476.029175,542.943115 473.264771,542.970825 
	C463.793488,543.065674 454.320374,542.980286 444.375061,542.941284 
	C445.420593,542.604614 446.937195,542.028442 448.457733,542.017944 
	C459.210907,541.943665 469.964844,541.985535 481.134338,542.043274 
z"/>
<path fill="#FFAA7F" opacity="1.000000" stroke="none" 
	d="
M1113.697266,541.585266 
	C1103.510132,541.997559 1093.187256,541.998047 1082.390381,541.995361 
	C1082.745850,541.661926 1083.574829,541.045837 1084.404541,541.044922 
	C1094.123535,541.034241 1103.842651,541.116028 1113.697266,541.585266 
z"/>
<path fill="#FFAA7F" opacity="1.000000" stroke="none" 
	d="
M1151.697388,495.585144 
	C1143.254150,495.983276 1134.675537,495.969391 1125.639893,495.944153 
	C1128.167358,495.622009 1131.148193,495.096893 1134.137085,495.046204 
	C1139.943115,494.947693 1145.753418,495.115570 1151.697388,495.585144 
z"/>
<path fill="#FFAA7F" opacity="1.000000" stroke="none" 
	d="
M1385.414551,479.698029 
	C1385.001099,471.249725 1384.999878,462.666077 1384.998535,453.624451 
	C1385.332520,454.599091 1385.945190,456.030060 1385.953613,457.464600 
	C1385.996704,464.830139 1385.884521,472.196594 1385.414551,479.698029 
z"/>
<path fill="#FFAA7F" opacity="1.000000" stroke="none" 
	d="
M1081.605469,542.130249 
	C1081.993530,550.250122 1081.994995,558.583740 1081.996338,567.375366 
	C1081.664307,566.064941 1081.061035,564.298462 1081.048706,562.527832 
	C1081.001831,555.800537 1081.146118,549.072021 1081.605469,542.130249 
z"/>
</svg>