<svg xmlns="http://www.w3.org/2000/svg" viewBox="800 380 350 250">
<g>
	<g>
		<g>
			<g>
				<path fill="#F2540F" d="M992.59,551.75c-18.14,0-36.29,0-54.43,0c-0.01-0.01-0.02-0.02-0.03-0.03l-16.45-16.81l-10.52-10.73
					c-19.63-20.05-39.25-40.09-58.88-60.14l69.4-69.1v54.39l-15.11,15.05c5.04,5.15,10.08,10.29,15.11,15.44
					C945.31,503.8,968.95,527.78,992.59,551.75z"/>
			</g>
		</g>
		<g>
			<g>
				<path fill="#F2540F" d="M997.86,583.71v1.07c-12.49,12.49-24.98,24.98-37.46,37.47H813.09l70.5-70.5h54.51l-31.95,31.96H997.86z"
					/>
			</g>
		</g>
		<g>
			<g>
				<path fill="#F2540F" d="M953.39,465.44c18,0,36.01,0,54.01,0l0.03,0.03l16.45,16.81l10.52,10.73
					c19.63,20.05,39.25,40.09,58.88,60.14l-69.4,69.1v-54.39l15.11-15.05c-5.04-5.15-10.08-10.29-15.11-15.44
					C1000.38,513.39,976.88,489.42,953.39,465.44z"/>
			</g>
		</g>
		<g>
			<g>
				<path fill="#F2540F" d="M1132.47,394.95l-70.5,70.5h-54.51l31.95-31.96h-91.48c12.85-12.85,25.68-25.69,38.53-38.54H1132.47z"/>
			</g>
		</g>
	</g>
</g>
</svg>
