<?xml version="1.0" encoding="utf-8"?>
<!-- Generator: Adobe Illustrator 27.9.0, SVG Export Plug-In . SVG Version: 6.00 Build 0)  -->
<svg version="1.1" id="Layer_1" xmlns="http://www.w3.org/2000/svg" xmlns:xlink="http://www.w3.org/1999/xlink" x="0px" y="0px"
	 viewBox="0 0 1945.55 1017.19" style="enable-background:new 0 0 1945.55 1017.19;" xml:space="preserve">
<style type="text/css">
	.st0{fill:#EDF0F5;}
	.st1{fill:#FF5500;}
	.st2{fill:#FFFFFF;}
	.st3{fill:none;stroke:#000000;stroke-width:25.1971;stroke-miterlimit:10;}
	.st4{fill:#0145F2;}
	.st5{fill:#8B53FE;}
	.st6{fill:#274193;}
	.st7{fill:#ED244E;}
	.st8{fill:#002A31;}
	.st9{fill:#8DFF01;}
	.st10{fill:#1D2331;}
	.st11{fill:#F2540F;}
	.st12{fill:#EFEEED;}
	.st13{fill:#CC0A00;}
	.st14{fill:#C40000;}
	.st15{fill:none;stroke:#000000;stroke-width:25.4914;stroke-miterlimit:10;}
	.st16{fill:#EF754B;}
	.st17{fill:#EF8762;}
	.st18{fill:#E29A81;}
	.st19{fill:#E0B4A9;}
	.st20{fill:#D8420E;}
	.st21{fill:#A53007;}
	.st22{fill:#8E2E0D;}
	.st23{fill:#752205;}
</style>
<rect class="st2" width="1945.55" height="1017.19"/>
<g>
	<g>
		<g>
			<g>
				<path class="st11" d="M992.59,551.75c-18.14,0-36.29,0-54.43,0c-0.01-0.01-0.02-0.02-0.03-0.03l-16.45-16.81l-10.52-10.73
					c-19.63-20.05-39.25-40.09-58.88-60.14l69.4-69.1v54.39l-15.11,15.05c5.04,5.15,10.08,10.29,15.11,15.44
					C945.31,503.8,968.95,527.78,992.59,551.75z"/>
			</g>
		</g>
		<g>
			<g>
				<path class="st11" d="M997.86,583.71v1.07c-12.49,12.49-24.98,24.98-37.46,37.47H813.09l70.5-70.5h54.51l-31.95,31.96H997.86z"
					/>
			</g>
		</g>
		<g>
			<g>
				<path class="st11" d="M953.39,465.44c18,0,36.01,0,54.01,0l0.03,0.03l16.45,16.81l10.52,10.73
					c19.63,20.05,39.25,40.09,58.88,60.14l-69.4,69.1v-54.39l15.11-15.05c-5.04-5.15-10.08-10.29-15.11-15.44
					C1000.38,513.39,976.88,489.42,953.39,465.44z"/>
			</g>
		</g>
		<g>
			<g>
				<path class="st11" d="M1132.47,394.95l-70.5,70.5h-54.51l31.95-31.96h-91.48c12.85-12.85,25.68-25.69,38.53-38.54H1132.47z"/>
			</g>
		</g>
	</g>
</g>
</svg>
